<svg xmlns="http://www.w3.org/2000/svg" width="298.294" height="61.577" viewBox="0 0 298.294 61.577">
  <g id="Groupe_295" data-name="Groupe 295" transform="translate(-89.706 -25.558)">
    <path id="Tracé_11" data-name="Tracé 11" d="M33.96-27.8a3.5,3.5,0,0,1,2.358-.621,3.111,3.111,0,0,1,2.482.931q4.1.248,7.571.279t3.475,2.389v.621q0,2.234-1.272,2.948a8.967,8.967,0,0,1-4.158.714q-2.886,0-6.547-.124-2.792,10.363-4.84,17.437-1.365,4.592-2.451,7.819t-2.886,7.974a57.306,57.306,0,0,1-4.716,9.525q-4.1,6.7-9,6.7-5.15,0-7.446-3.413T4.05,14.765a4.315,4.315,0,0,1,.683-2.637,1.966,1.966,0,0,1,1.582-.9,2.185,2.185,0,0,1,1.613.745A3.059,3.059,0,0,1,8.7,14.02q.31,4.716,1.241,6.392,3.537,6.081,3.537,1.675,1.675,0,3.847-3.258a48.976,48.976,0,0,0,4.22-8.129Q23.6,5.829,26.482-2.548t5.306-18.306q-8.563-.248-13.4-.248a34.393,34.393,0,0,0-6.795.621,10.849,10.849,0,0,0-4.716,1.955,12.265,12.265,0,0,0-3.01,4,2.369,2.369,0,0,1-2.3,1.365A1.673,1.673,0,0,1-.294-15.083,4.441,4.441,0,0,1-.108-16.2Q2.25-23.9,7.463-26.439a21.385,21.385,0,0,1,5.306-1.706,39.025,39.025,0,0,1,6.609-.465Q23.349-28.611,33.96-27.8Zm7.881,37.915a3.974,3.974,0,0,0,2.823-1.334,8.337,8.337,0,0,0,1.955-4.189l1.427-6.7a8.243,8.243,0,0,0-6.174,3.289,9.679,9.679,0,0,0-2.513,6.019Q39.359,10.111,41.841,10.111ZM48.977-4.038l1.675-.186h.372a1.564,1.564,0,0,1,1.8,1.738,2.177,2.177,0,0,1-.062.621L51.025,8.125a1.882,1.882,0,0,0-.062.558q0,1.117.931,1.117a4.707,4.707,0,0,0,2.451-1.086,11.971,11.971,0,0,0,2.761-2.823,1.967,1.967,0,0,1,1.365-.683q.683,0,1.179,1.086a4.681,4.681,0,0,1,.5,1.893,4.354,4.354,0,0,1-.186,1.365,18.023,18.023,0,0,1-3.878,3.723,7.749,7.749,0,0,1-4.5,1.675A4.8,4.8,0,0,1,48.2,13.834a3.963,3.963,0,0,1-1.334-2.668l-.807,1.117a6.421,6.421,0,0,1-5.368,3.041,6.071,6.071,0,0,1-4.933-2.079,7.993,7.993,0,0,1-1.738-5.306,13.238,13.238,0,0,1,4.065-9.867Q42.151-5.9,46.495-5.9q2.544,0,2.544,1.365ZM79.818-19.8q-2.482,0-3.909,5.119A97.523,97.523,0,0,0,73.426-1.307Q80.873-14.339,80.873-18.5,80.873-19.8,79.818-19.8ZM64.677,10.235q2.792,0,3.537-7.26l.5-4.716a6.813,6.813,0,0,0-5.119,2.7A8.619,8.619,0,0,0,61.822,6.2Q61.822,10.235,64.677,10.235Zm-8.5-2.73A14.01,14.01,0,0,1,59.5-1.587q3.32-4.065,7.664-4.065a7.68,7.68,0,0,1,1.986.248q1.365-10.487,4.034-15.42t7.446-4.933A4.786,4.786,0,0,1,84.658-23.9a7.425,7.425,0,0,1,1.427,4.654,16.962,16.962,0,0,1-1.52,6.423,40.719,40.719,0,0,1-3.1,6.112q-1.582,2.482-4.5,6.547T73.3,5.084v.807a5.727,5.727,0,0,0,.9,3.63,2.7,2.7,0,0,0,2.141,1.086q2.42,0,6.454-4.716.186-.186,1.055-.155a2.624,2.624,0,0,1,1.613.652,1.938,1.938,0,0,1,.745,1.551,2.723,2.723,0,0,1-.558,1.675q-4.282,5.585-9.8,5.585a7.936,7.936,0,0,1-3.878-1.086,6.129,6.129,0,0,1-2.761-2.948q-1.613,4.158-5.523,4.158a7.339,7.339,0,0,1-5.306-2.141A7.556,7.556,0,0,1,56.175,7.5ZM89.684-.563a4.762,4.762,0,0,0-3.413,1.986,6.686,6.686,0,0,0-1.738,4.53,14.227,14.227,0,0,0,4.53-2.2Q91.422,2.106,91.422.616,91.422-.563,89.684-.563ZM79.011,7.132a13.223,13.223,0,0,1,3.351-8.439A10,10,0,0,1,90.3-5.4a5.7,5.7,0,0,1,4.22,1.551A6.048,6.048,0,0,1,96.076.616a6.416,6.416,0,0,1-2.792,5.119q-2.792,2.2-8.315,3.134a3.422,3.422,0,0,0,3.32,1.613,12.971,12.971,0,0,0,4.9-.993,13.733,13.733,0,0,0,4.251-2.668A1.436,1.436,0,0,1,98.5,6.387a1.763,1.763,0,0,1,1.21.558,1.711,1.711,0,0,1,.59,1.272,2.44,2.44,0,0,1-.558,1.458,13.29,13.29,0,0,1-4.84,3.971,14.732,14.732,0,0,1-6.981,1.738,10.2,10.2,0,0,1-6.3-1.955Q79.011,11.476,79.011,7.132ZM132.378-13.26a30.491,30.491,0,0,1,1.986-9.494,13.563,13.563,0,0,1,3.971-5.461,15.6,15.6,0,0,1,9.742-3.227q6.205,0,10.084,2.917a9.287,9.287,0,0,1,3.878,7.819q0,6.019-5.647,9.8-4.84,3.227-14.707,3.227-1.117,0-2.3-.062-.807,12.473-4.53,18.8,1.489.869,5.306,3.227c2.544,1.572,4.972,3.64,7.206,4.8,2.772,1.448,6.508,3.351,8.494,3.351a6.029,6.029,0,0,0,5.337-2.979,2.234,2.234,0,0,1,1.924-1.117,2.819,2.819,0,0,1,1.986.745,2.209,2.209,0,0,1,.807,1.644,3.625,3.625,0,0,1-.372,1.644Q162.5,27.9,156.8,27.9c-3.6.092-9.121-2.82-12.133-4.556s-5.511-3.438-6.235-3.872-1.944-1.169-3.661-2.2-2.8-1.7-3.258-1.986q-4.406,3.909-11.542,4.282h-.745a8.144,8.144,0,0,1-5.957-2.017,6.659,6.659,0,0,1-2.048-4.933,7.226,7.226,0,0,1,2.141-5.15,7.658,7.658,0,0,1,5.8-2.234,24.519,24.519,0,0,1,10.053,2.73q1.924-5.088,2.854-16.382-3.413-.5-7.2-1.241a2.089,2.089,0,0,1-1.8-2.3,2.754,2.754,0,0,1,.621-1.769A1.97,1.97,0,0,1,125.3-14.5ZM120.9,14.912a7.479,7.479,0,0,0,5.647-2.42q-4.282-2.234-6.64-2.234a2.79,2.79,0,0,0-1.955.652,2.166,2.166,0,0,0-.714,1.675,1.944,1.944,0,0,0,.993,1.675A4.806,4.806,0,0,0,120.9,14.912Zm27.49-40.956q-4.158,0-6.019,2.854T139.762-12.7h.621q7.695,0,11.263-2.389t3.568-5.616a4.638,4.638,0,0,0-1.862-3.94A8.077,8.077,0,0,0,148.388-26.043Zm9.556,36.154a3.974,3.974,0,0,0,2.823-1.334,8.337,8.337,0,0,0,1.955-4.189l1.427-6.7a8.243,8.243,0,0,0-6.174,3.289,9.679,9.679,0,0,0-2.513,6.019Q155.462,10.111,157.944,10.111ZM165.08-4.038l1.675-.186h.372a1.564,1.564,0,0,1,1.8,1.738,2.178,2.178,0,0,1-.062.621l-1.738,9.991a1.882,1.882,0,0,0-.062.558q0,1.117.931,1.117a4.707,4.707,0,0,0,2.451-1.086,11.971,11.971,0,0,0,2.761-2.823,1.967,1.967,0,0,1,1.365-.683q.683,0,1.179,1.086a4.681,4.681,0,0,1,.5,1.893,4.354,4.354,0,0,1-.186,1.365,18.023,18.023,0,0,1-3.878,3.723,7.749,7.749,0,0,1-4.5,1.675,4.8,4.8,0,0,1-3.382-1.117,3.963,3.963,0,0,1-1.334-2.668l-.807,1.117a6.421,6.421,0,0,1-5.368,3.041,6.071,6.071,0,0,1-4.933-2.079,7.993,7.993,0,0,1-1.738-5.306,13.238,13.238,0,0,1,4.065-9.867Q158.254-5.9,162.6-5.9q2.544,0,2.544,1.365ZM183.51,2.23q-.186.434-1.613,3.568t-2.979,7.353a3.386,3.386,0,0,1-3.227,1.862q-3.041,0-3.041-4.406V9.366a41.857,41.857,0,0,1,1.613-11.79q1.179-3.041,3.537-3.041a2,2,0,0,1,1.52.621,1.852,1.852,0,0,1,.59,1.272,34.3,34.3,0,0,1-.776,4.22,44.278,44.278,0,0,1-1.272,4.933,36.076,36.076,0,0,1,4.282-7.229Q184.937-5.4,186.489-5.4q3.1,0,3.1,2.048a7.585,7.585,0,0,1-.683,2.917q-.683,1.613-.683,1.675,0,.31.962.31a21.7,21.7,0,0,0,5.119-1.675h.062q.621,0,1.489,1.055a3.066,3.066,0,0,1,.869,1.738q0,.31-.186.372a13.911,13.911,0,0,1-8.719,3.413q-4.437,0-4.437-3.1A5.752,5.752,0,0,1,183.51,2.23Zm16.32,8.688a3.465,3.465,0,0,0,2.73-1.117A5.2,5.2,0,0,0,203.8,7.07a3.286,3.286,0,0,1-2.482-3.2,7.265,7.265,0,0,1,1.862-4.561l-1.117-.186H202a4.753,4.753,0,0,0-4.1,2.265,8.1,8.1,0,0,0-1.551,4.623,6.232,6.232,0,0,0,.9,3.63A2.964,2.964,0,0,0,199.83,10.917Zm-8.563-3.723a13.374,13.374,0,0,1,3.165-8.9,9.9,9.9,0,0,1,7.881-3.754,6.242,6.242,0,0,1,4.933,2.079,7.644,7.644,0,0,1,1.831,5.244,11.453,11.453,0,0,1-.186,1.986A14.906,14.906,0,0,0,214.661.306a1.3,1.3,0,0,1,.962-.372A1.6,1.6,0,0,1,216.8.678a2.256,2.256,0,0,1,.59,1.334,1.432,1.432,0,0,1-.186.838q-2.42,3.165-9,5.337-2.73,7.2-8.874,7.2a7.8,7.8,0,0,1-5.8-2.3A8.04,8.04,0,0,1,191.267,7.194ZM213.11,8.435a24.706,24.706,0,0,1,1.148-6.919,17.087,17.087,0,0,1,2.7-5.8,2.626,2.626,0,0,1,2.234-1.241,5,5,0,0,1,2.234.434q.869.434.869,1.117a6.767,6.767,0,0,1-.589,1.4,41.664,41.664,0,0,0-1.675,4.53,20.042,20.042,0,0,0-1.117,5.9q-.031,2.575,1.52,2.575a5.011,5.011,0,0,0,3.32-1.706A10.442,10.442,0,0,0,226.39,4.34l2.172-6.888a5.368,5.368,0,0,1,1.272-2.42,2.782,2.782,0,0,1,1.893-.621q2.73,0,2.73,1.613a15.75,15.75,0,0,1-.962,3.227A43,43,0,0,0,231.85,5.3q-.683,3.382-.683,3.568,0,1.179,1.055,1.179,1.738,0,4.344-2.979a1.536,1.536,0,0,1,1.148-.683,2.569,2.569,0,0,1,1.489.776,2.748,2.748,0,0,1,1.024,1.458,12.889,12.889,0,0,1-3.6,4.5,9.226,9.226,0,0,1-6.143,2.141,3.293,3.293,0,0,1-3.041-1.4,5.034,5.034,0,0,1-.869-2.637A8.223,8.223,0,0,1,226.7,9.49a11.274,11.274,0,0,1-3.1,4.127,7.249,7.249,0,0,1-4.778,1.644,4.975,4.975,0,0,1-4.251-1.955A7.919,7.919,0,0,1,213.11,8.435ZM246.619,2.85a3.3,3.3,0,0,1,.4-1.272,3.333,3.333,0,0,0,.4-1.334q0-1.055-1.738-1.055a4.247,4.247,0,0,0-3.258,1.893q-1.52,1.893-1.52,5.8a4.3,4.3,0,0,0,1.21,3.227,3.955,3.955,0,0,0,2.855,1.179,7.619,7.619,0,0,0,3.072-.621,10.911,10.911,0,0,0,2.2-1.21q.776-.59,2.172-1.862t1.8-1.644a1.331,1.331,0,0,1,.931-.372,1.213,1.213,0,0,1,.962.59,2.019,2.019,0,0,1,.434,1.21,2.064,2.064,0,0,1-.31,1.117q-5.213,6.888-12.1,6.888a10.216,10.216,0,0,1-5.213-1.365,6.816,6.816,0,0,1-2.3-2.637,10.385,10.385,0,0,1-.993-4.933,13.026,13.026,0,0,1,2.917-8.16,9.27,9.27,0,0,1,7.695-3.754,6.43,6.43,0,0,1,4.5,1.551,4.827,4.827,0,0,1,1.706,3.692,5.824,5.824,0,0,1-1.21,3.692,3.573,3.573,0,0,1-2.886,1.551,1.555,1.555,0,0,1-1.179-.683A2.3,2.3,0,0,1,246.619,2.85Zm22.4-24.573q-2.917,0-5.585,7.571a66.723,66.723,0,0,0-2.11,7.2,50.724,50.724,0,0,0,6.361-7.757q2.513-3.847,2.513-5.771Q270.2-21.723,269.021-21.723ZM253.631,10.545q0-.683.186-2.917a90.541,90.541,0,0,1,4.716-22.153,27.721,27.721,0,0,1,5.182-9.525q3.258-3.754,7.105-3.754a4.753,4.753,0,0,1,3.692,1.458,5.433,5.433,0,0,1,1.334,3.816v.558a20.379,20.379,0,0,1-3.971,8.843Q268.524-8.506,260.768-2.61L259.03,4.774a20.815,20.815,0,0,1,6.143-7.54q3.785-2.823,5.771-2.823a6,6,0,0,1,3.072.652A2.032,2.032,0,0,1,275.1-3.107a20.578,20.578,0,0,1-.59,2.141,73.017,73.017,0,0,1-3.568,8.1,7.54,7.54,0,0,0-.869,2.358q0,.745.807.745t5.9-3.6A6.739,6.739,0,0,1,279.26,5.27q1.365,0,1.365,2.544v.434q.124,1.365-1.738,3.041a16.882,16.882,0,0,1-4.84,2.917,14.325,14.325,0,0,1-5.461,1.241q-4.033,0-4.034-3.537A17.8,17.8,0,0,1,266.2,5.984a29.432,29.432,0,0,0,1.644-4.468q0-.465-.31-.465-1.3,0-4.716,4.282t-4.158,7.012a6.391,6.391,0,0,1-.807,2.048,2,2,0,0,1-1.738.621Q253.631,15.013,253.631,10.545ZM287.389-.563a4.762,4.762,0,0,0-3.413,1.986,6.686,6.686,0,0,0-1.738,4.53,14.227,14.227,0,0,0,4.53-2.2q2.358-1.644,2.358-3.134Q289.126-.563,287.389-.563ZM276.715,7.132a13.223,13.223,0,0,1,3.351-8.439,10,10,0,0,1,7.943-4.1,5.7,5.7,0,0,1,4.22,1.551A6.048,6.048,0,0,1,293.78.616a6.416,6.416,0,0,1-2.792,5.119q-2.792,2.2-8.315,3.134a3.422,3.422,0,0,0,3.32,1.613,12.971,12.971,0,0,0,4.9-.993,13.733,13.733,0,0,0,4.251-2.668,1.436,1.436,0,0,1,1.055-.434,1.763,1.763,0,0,1,1.21.558A1.711,1.711,0,0,1,298,8.218a2.44,2.44,0,0,1-.558,1.458,13.29,13.29,0,0,1-4.84,3.971,14.732,14.732,0,0,1-6.981,1.738,10.2,10.2,0,0,1-6.3-1.955Q276.715,11.476,276.715,7.132Z" transform="translate(90 57)" fill="#f7ce54"/>
    <path id="Tracé_12" data-name="Tracé 12" d="M50.012-1.268H51.18a1.56,1.56,0,0,0,.91-.279,2,2,0,0,0,.646-.76,2.315,2.315,0,0,0,.243-1.059,2.306,2.306,0,0,0-.243-1.065,2.008,2.008,0,0,0-.646-.755,1.56,1.56,0,0,0-.91-.279H50.012ZM48.234.251V-6.984H51.18a3.594,3.594,0,0,1,1.421.279,3.673,3.673,0,0,1,1.158.775,3.571,3.571,0,0,1,.78,1.152,3.568,3.568,0,0,1,.279,1.411,3.568,3.568,0,0,1-.279,1.411A3.571,3.571,0,0,1,53.759-.8,3.673,3.673,0,0,1,52.6-.028,3.594,3.594,0,0,1,51.18.251Zm10.274.1a2.791,2.791,0,0,1-1.421-.367A2.8,2.8,0,0,1,56.074-1a2.658,2.658,0,0,1-.377-1.4,2.8,2.8,0,0,1,.351-1.406,2.669,2.669,0,0,1,.961-.987,2.614,2.614,0,0,1,1.375-.367,2.554,2.554,0,0,1,1.364.362,2.534,2.534,0,0,1,.925,1,3.084,3.084,0,0,1,.336,1.463v.362H57.34a1.507,1.507,0,0,0,.258.527,1.2,1.2,0,0,0,.434.351,1.273,1.273,0,0,0,.558.124,1.562,1.562,0,0,0,.6-.114,1.119,1.119,0,0,0,.45-.331l1.106.92a3.476,3.476,0,0,1-1.044.656A3.339,3.339,0,0,1,58.508.354ZM57.34-2.933h2.119a1.37,1.37,0,0,0-.227-.5,1.1,1.1,0,0,0-.372-.32,1.031,1.031,0,0,0-.486-.114,1.016,1.016,0,0,0-.47.109.933.933,0,0,0-.351.315A1.547,1.547,0,0,0,57.34-2.933Zm.093-3.028L58.859-7.47h1.995L58.87-5.961ZM63.479.251l-2.16-5.333h1.819l1.209,3.349,1.22-3.349h1.726L65.112.251Zm6.956.1a2.791,2.791,0,0,1-1.421-.367A2.8,2.8,0,0,1,68-1a2.658,2.658,0,0,1-.377-1.4,2.8,2.8,0,0,1,.351-1.406,2.669,2.669,0,0,1,.961-.987,2.614,2.614,0,0,1,1.375-.367,2.554,2.554,0,0,1,1.364.362,2.534,2.534,0,0,1,.925,1,3.084,3.084,0,0,1,.336,1.463v.362H69.267a1.507,1.507,0,0,0,.258.527,1.2,1.2,0,0,0,.434.351,1.273,1.273,0,0,0,.558.124,1.562,1.562,0,0,0,.6-.114,1.119,1.119,0,0,0,.45-.331l1.106.92a3.476,3.476,0,0,1-1.044.656A3.339,3.339,0,0,1,70.435.354ZM69.267-2.933h2.119a1.37,1.37,0,0,0-.227-.5,1.1,1.1,0,0,0-.372-.32,1.031,1.031,0,0,0-.486-.114,1.016,1.016,0,0,0-.47.109.933.933,0,0,0-.351.315A1.547,1.547,0,0,0,69.267-2.933ZM73.981.251V-7.108l1.674-.258V.251Zm5.519.1a2.794,2.794,0,0,1-1.416-.362,2.688,2.688,0,0,1-1-.987,2.735,2.735,0,0,1-.367-1.411,2.735,2.735,0,0,1,.367-1.411,2.688,2.688,0,0,1,1-.987A2.794,2.794,0,0,1,79.5-5.165a2.786,2.786,0,0,1,1.421.362,2.7,2.7,0,0,1,.992.987,2.735,2.735,0,0,1,.367,1.411,2.735,2.735,0,0,1-.367,1.411,2.7,2.7,0,0,1-.992.987A2.786,2.786,0,0,1,79.5.354Zm0-1.4a1.04,1.04,0,0,0,.6-.176,1.171,1.171,0,0,0,.4-.486,1.643,1.643,0,0,0,.145-.7,1.634,1.634,0,0,0-.145-.708,1.177,1.177,0,0,0-.4-.481,1.04,1.04,0,0,0-.6-.176,1.047,1.047,0,0,0-.594.176,1.163,1.163,0,0,0-.408.481,1.634,1.634,0,0,0-.145.708,1.643,1.643,0,0,0,.145.7,1.156,1.156,0,0,0,.408.486A1.047,1.047,0,0,0,79.5-1.041Zm3.845,3.452V-5.082H85v.744a1.877,1.877,0,0,1,.687-.568,1.992,1.992,0,0,1,.894-.207,2.055,2.055,0,0,1,1.194.367,2.628,2.628,0,0,1,.848.977,2.926,2.926,0,0,1,.315,1.364,2.793,2.793,0,0,1-.331,1.354,2.613,2.613,0,0,1-.894.972,2.275,2.275,0,0,1-1.256.362,1.98,1.98,0,0,1-.8-.16,1.825,1.825,0,0,1-.636-.46V2.411Zm2.677-3.5a1.251,1.251,0,0,0,.656-.171,1.23,1.23,0,0,0,.45-.47,1.388,1.388,0,0,0,.165-.682,1.359,1.359,0,0,0-.165-.677,1.228,1.228,0,0,0-.455-.465,1.258,1.258,0,0,0-.651-.171,1.342,1.342,0,0,0-.553.109,1.424,1.424,0,0,0-.45.326v1.778a1.48,1.48,0,0,0,.455.31A1.345,1.345,0,0,0,86.022-1.093ZM90,2.411V-5.082h1.654v.744a1.877,1.877,0,0,1,.687-.568,1.992,1.992,0,0,1,.894-.207,2.055,2.055,0,0,1,1.194.367,2.627,2.627,0,0,1,.848.977,2.927,2.927,0,0,1,.315,1.364,2.793,2.793,0,0,1-.331,1.354,2.613,2.613,0,0,1-.894.972,2.275,2.275,0,0,1-1.256.362,1.98,1.98,0,0,1-.8-.16,1.825,1.825,0,0,1-.636-.46V2.411Zm2.677-3.5a1.251,1.251,0,0,0,.656-.171,1.23,1.23,0,0,0,.45-.47,1.388,1.388,0,0,0,.165-.682,1.359,1.359,0,0,0-.165-.677,1.228,1.228,0,0,0-.455-.465,1.258,1.258,0,0,0-.651-.171,1.342,1.342,0,0,0-.553.109,1.424,1.424,0,0,0-.45.326v1.778a1.48,1.48,0,0,0,.455.31A1.345,1.345,0,0,0,92.678-1.093ZM99.231.354A2.791,2.791,0,0,1,97.81-.013,2.8,2.8,0,0,1,96.8-1a2.658,2.658,0,0,1-.377-1.4,2.8,2.8,0,0,1,.351-1.406,2.669,2.669,0,0,1,.961-.987,2.614,2.614,0,0,1,1.375-.367,2.554,2.554,0,0,1,1.364.362,2.534,2.534,0,0,1,.925,1,3.084,3.084,0,0,1,.336,1.463v.362H98.063a1.507,1.507,0,0,0,.258.527,1.2,1.2,0,0,0,.434.351,1.273,1.273,0,0,0,.558.124,1.562,1.562,0,0,0,.6-.114,1.119,1.119,0,0,0,.45-.331l1.106.92a3.476,3.476,0,0,1-1.044.656A3.339,3.339,0,0,1,99.231.354ZM98.063-2.933h2.119a1.37,1.37,0,0,0-.227-.5,1.1,1.1,0,0,0-.372-.32,1.031,1.031,0,0,0-.486-.114,1.016,1.016,0,0,0-.47.109.933.933,0,0,0-.351.315A1.547,1.547,0,0,0,98.063-2.933ZM104.5.334A1.779,1.779,0,0,1,103.588.1a1.668,1.668,0,0,1-.625-.641,1.911,1.911,0,0,1-.227-.946v-3.6h1.674v3.111a1.042,1.042,0,0,0,.243.718.821.821,0,0,0,.646.274,1.1,1.1,0,0,0,.491-.109,1.136,1.136,0,0,0,.4-.336V-5.082h1.674V.251h-1.674V-.617a2.186,2.186,0,0,1-.739.708A1.886,1.886,0,0,1,104.5.334Zm6.677.021a5.321,5.321,0,0,1-1.354-.165,3.462,3.462,0,0,1-1.1-.486l.734-1.116a6.332,6.332,0,0,0,.956.419,2.515,2.515,0,0,0,.76.119,1.114,1.114,0,0,0,.563-.119.356.356,0,0,0,.2-.315.3.3,0,0,0-.119-.248.835.835,0,0,0-.377-.134l-1.023-.186a2.206,2.206,0,0,1-1.173-.537,1.361,1.361,0,0,1-.4-1.013,1.6,1.6,0,0,1,.269-.935,1.692,1.692,0,0,1,.77-.594,3.123,3.123,0,0,1,1.194-.207,4.043,4.043,0,0,1,1.106.155,4.631,4.631,0,0,1,1.065.455l-.765,1.065a3.393,3.393,0,0,0-.78-.346,2.7,2.7,0,0,0-.749-.109.99.99,0,0,0-.47.093.292.292,0,0,0-.171.269.282.282,0,0,0,.119.248,1.133,1.133,0,0,0,.429.134l1,.186a2.258,2.258,0,0,1,1.2.537,1.339,1.339,0,0,1,.4,1,1.569,1.569,0,0,1-.3.935,2.015,2.015,0,0,1-.817.656A2.79,2.79,0,0,1,111.179.354Zm5.891,0a2.791,2.791,0,0,1-1.421-.367A2.8,2.8,0,0,1,114.637-1a2.658,2.658,0,0,1-.377-1.4,2.8,2.8,0,0,1,.351-1.406,2.669,2.669,0,0,1,.961-.987,2.614,2.614,0,0,1,1.375-.367,2.554,2.554,0,0,1,1.364.362,2.534,2.534,0,0,1,.925,1,3.084,3.084,0,0,1,.336,1.463v.362H115.9a1.508,1.508,0,0,0,.258.527,1.2,1.2,0,0,0,.434.351,1.273,1.273,0,0,0,.558.124,1.562,1.562,0,0,0,.6-.114,1.119,1.119,0,0,0,.45-.331l1.106.92a3.476,3.476,0,0,1-1.044.656A3.339,3.339,0,0,1,117.071.354ZM115.9-2.933h2.119a1.37,1.37,0,0,0-.227-.5,1.1,1.1,0,0,0-.372-.32,1.031,1.031,0,0,0-.486-.114,1.016,1.016,0,0,0-.47.109.933.933,0,0,0-.351.315A1.547,1.547,0,0,0,115.9-2.933Zm7.09,3.183V-6.984H128.5V-5.5h-3.731V-4.07h2.6v1.447h-2.6V.251ZM131,.334A1.779,1.779,0,0,1,130.089.1a1.668,1.668,0,0,1-.625-.641,1.911,1.911,0,0,1-.227-.946v-3.6h1.674v3.111a1.043,1.043,0,0,0,.243.718.821.821,0,0,0,.646.274,1.1,1.1,0,0,0,.491-.109,1.135,1.135,0,0,0,.4-.336V-5.082h1.674V.251h-1.674V-.617a2.186,2.186,0,0,1-.739.708A1.886,1.886,0,0,1,131,.334Zm4.661-.083V-7.108l1.674-.258V.251Zm2.977,0V-7.108l1.674-.258V.251Zm7.876.114a4.784,4.784,0,0,1-1.633-.279,5.816,5.816,0,0,1-1.5-.817l.91-1.313a7.052,7.052,0,0,0,1.282.744,2.775,2.775,0,0,0,1.065.217,1.951,1.951,0,0,0,.656-.1,1,1,0,0,0,.424-.269.584.584,0,0,0,.15-.4.594.594,0,0,0-.212-.491,1.693,1.693,0,0,0-.739-.264l-1.54-.269a2.183,2.183,0,0,1-1.318-.661,1.857,1.857,0,0,1-.46-1.282,2.138,2.138,0,0,1,.341-1.214,2.193,2.193,0,0,1,.987-.791,3.882,3.882,0,0,1,1.545-.279,5.256,5.256,0,0,1,1.623.253,4.2,4.2,0,0,1,1.344.7l-.9,1.292a4.108,4.108,0,0,0-1.054-.6,3.142,3.142,0,0,0-1.106-.2,1.8,1.8,0,0,0-.6.088.844.844,0,0,0-.377.243.534.534,0,0,0-.129.351.513.513,0,0,0,.191.429,1.491,1.491,0,0,0,.625.233l1.447.248a2.741,2.741,0,0,1,1.54.693,1.833,1.833,0,0,1,.527,1.354,2.1,2.1,0,0,1-.377,1.24,2.463,2.463,0,0,1-1.07.837A4.117,4.117,0,0,1,146.518.365Zm6.553-.01a2.077,2.077,0,0,1-1.426-.434,1.63,1.63,0,0,1-.486-1.282V-3.79h-1.034V-5.082h1.034V-6.56l1.674-.341v1.819h1.426V-3.79h-1.426v2.1a.645.645,0,0,0,.16.5.806.806,0,0,0,.543.145,2.044,2.044,0,0,0,.289-.021,3.022,3.022,0,0,0,.393-.093V.189a3.461,3.461,0,0,1-.558.119A4.281,4.281,0,0,1,153.071.354Zm3.711-.021a2.132,2.132,0,0,1-.956-.207,1.591,1.591,0,0,1-.651-.568,1.514,1.514,0,0,1-.233-.837,1.408,1.408,0,0,1,.248-.842,1.531,1.531,0,0,1,.713-.527,3.081,3.081,0,0,1,1.116-.181,3.157,3.157,0,0,1,.589.057,3.847,3.847,0,0,1,.651.191v-.434A.679.679,0,0,0,158-3.6a1.341,1.341,0,0,0-.8-.191,2.887,2.887,0,0,0-.667.088,5.429,5.429,0,0,0-.832.284l-.579-1.168a6,6,0,0,1,2.45-.579,2.563,2.563,0,0,1,1.721.527,1.842,1.842,0,0,1,.615,1.478V.251h-1.654V-.214a2.442,2.442,0,0,1-.7.419A2.232,2.232,0,0,1,156.781.334Zm-.3-1.643a.446.446,0,0,0,.217.4,1.1,1.1,0,0,0,.6.14A1.855,1.855,0,0,0,157.8-.84a1.781,1.781,0,0,0,.455-.2v-.682q-.227-.052-.455-.083a3.439,3.439,0,0,0-.465-.031,1.238,1.238,0,0,0-.636.134A.432.432,0,0,0,156.481-1.31ZM163.7.354a2.716,2.716,0,0,1-1.4-.367A2.74,2.74,0,0,1,161.3-1a2.716,2.716,0,0,1-.367-1.4,2.708,2.708,0,0,1,.367-1.406A2.753,2.753,0,0,1,162.3-4.8a2.716,2.716,0,0,1,1.4-.367,3.06,3.06,0,0,1,1.24.253,2.676,2.676,0,0,1,.982.729L164.895-3.16a1.823,1.823,0,0,0-.527-.439,1.3,1.3,0,0,0-.61-.14,1.047,1.047,0,0,0-.594.176,1.208,1.208,0,0,0-.413.475,1.505,1.505,0,0,0-.15.682,1.505,1.505,0,0,0,.15.682,1.208,1.208,0,0,0,.413.475,1.047,1.047,0,0,0,.594.176,1.3,1.3,0,0,0,.61-.14,1.823,1.823,0,0,0,.527-.439l1.023,1.023a2.676,2.676,0,0,1-.982.729A3.06,3.06,0,0,1,163.7.354Zm3.049-.1v-7.39l1.674-.258v4.434l1.86-2.119h1.85l-2.171,2.388L172.285.251H170.2l-1.778-2.357V.251Zm-259.6.025,1.54-7.235h4.972l-.2.889H-90.5l-.486,2.3h2.718l-.186.879h-2.718L-91.84.276Zm7.628.072a1.57,1.57,0,0,1-.93-.264,1.386,1.386,0,0,1-.522-.713A1.938,1.938,0,0,1-86.7-1.657l.692-3.183h.961L-85.7-1.863a1.256,1.256,0,0,0,.129,1.028.952.952,0,0,0,.842.4,1.452,1.452,0,0,0,.667-.16,1.942,1.942,0,0,0,.584-.47l.827-3.773h.961L-82.806.276h-.961l.165-.744a2.534,2.534,0,0,1-.76.61A1.885,1.885,0,0,1-85.225.349Zm3.9-.072,1.571-7.442.982-.176L-80.357.276Zm2.429,0,1.571-7.442.982-.176L-77.928.276Zm7.814.1A3.841,3.841,0,0,1-72.729.023a4.388,4.388,0,0,1-1.406-1.07l.651-.7a5.265,5.265,0,0,0,1.23.966,2.553,2.553,0,0,0,1.22.315,2.1,2.1,0,0,0,.873-.171,1.494,1.494,0,0,0,.6-.47,1.116,1.116,0,0,0,.222-.682.807.807,0,0,0-.284-.646,2.686,2.686,0,0,0-.977-.439l-1.189-.3a2.355,2.355,0,0,1-1.189-.656,1.59,1.59,0,0,1-.4-1.1,1.974,1.974,0,0,1,.32-1.121,2.058,2.058,0,0,1,.9-.739,3.269,3.269,0,0,1,1.344-.258,4.447,4.447,0,0,1,1.612.295,3.829,3.829,0,0,1,1.323.842l-.63.734a3.49,3.49,0,0,0-1.1-.755,3.164,3.164,0,0,0-1.256-.258,1.822,1.822,0,0,0-1.106.3.969.969,0,0,0-.413.822.849.849,0,0,0,.258.641,1.832,1.832,0,0,0,.806.393l1.158.289a3.139,3.139,0,0,1,1.4.7,1.5,1.5,0,0,1,.444,1.111,2.123,2.123,0,0,1-.351,1.214,2.327,2.327,0,0,1-.972.811A3.363,3.363,0,0,1-71.086.38Zm5.4-.021a1.4,1.4,0,0,1-1.09-.367,1.166,1.166,0,0,1-.181-1.059l.641-2.987h-1.013l.176-.786h1l.3-1.406,1.023-.217-.351,1.623h1.416l-.176.786H-65.36l-.6,2.8a.7.7,0,0,0,.057.6.8.8,0,0,0,.615.176,1.759,1.759,0,0,0,.238-.016,2.946,2.946,0,0,0,.341-.078l-.176.837q-.186.041-.393.067A3.33,3.33,0,0,1-65.69.359Zm3.628-.021a1.822,1.822,0,0,1-1.214-.388,1.278,1.278,0,0,1-.46-1.028,1.5,1.5,0,0,1,.248-.863,1.65,1.65,0,0,1,.7-.574,2.489,2.489,0,0,1,1.049-.207,3.305,3.305,0,0,1,.853.109,2.535,2.535,0,0,1,.729.315l.114-.527a1.057,1.057,0,0,0-.134-.961,1.254,1.254,0,0,0-.982-.32,2.9,2.9,0,0,0-.641.078,4.4,4.4,0,0,0-.786.274l-.248-.734a6.1,6.1,0,0,1,.992-.32,4.1,4.1,0,0,1,.889-.1,2.514,2.514,0,0,1,1.189.248,1.348,1.348,0,0,1,.646.7,1.811,1.811,0,0,1,.036,1.085L-59.778.276h-.951l.1-.475a2.743,2.743,0,0,1-.708.408A2.067,2.067,0,0,1-62.062.338Zm.32-.693A1.912,1.912,0,0,0-61.1-.463a2.258,2.258,0,0,0,.6-.336l.207-.91a1.813,1.813,0,0,0-.6-.269,3.139,3.139,0,0,0-.749-.083,1.392,1.392,0,0,0-.858.248.767.767,0,0,0-.331.641.712.712,0,0,0,.284.6A1.3,1.3,0,0,0-61.742-.354Zm5.933.724A2.24,2.24,0,0,1-56.957.075a2.1,2.1,0,0,1-.8-.822,2.428,2.428,0,0,1-.289-1.189,3.074,3.074,0,0,1,.217-1.152,3.012,3.012,0,0,1,.6-.951,2.818,2.818,0,0,1,.889-.641,2.546,2.546,0,0,1,1.075-.233,2.5,2.5,0,0,1,1.142.269,2.081,2.081,0,0,1,.832.734l-.7.589a1.6,1.6,0,0,0-.558-.537,1.491,1.491,0,0,0-.744-.186,1.551,1.551,0,0,0-.894.279,2.054,2.054,0,0,0-.656.744A2.14,2.14,0,0,0-57.091-2a1.622,1.622,0,0,0,.186.78,1.386,1.386,0,0,0,.512.543,1.4,1.4,0,0,0,.739.2,1.819,1.819,0,0,0,.677-.129,2.291,2.291,0,0,0,.6-.357l.455.62A2.729,2.729,0,0,1-54.8.188,2.893,2.893,0,0,1-55.809.369Zm2.667-.093,1.571-7.442.992-.176-.992,4.734,2.646-2.233h1.23l-3.049,2.522L-48.74.276h-1.137l-1.8-2.4-.5,2.4Zm7.711,0,1.54-7.235h2.16a3.2,3.2,0,0,1,1.628.4,2.872,2.872,0,0,1,1.1,1.127,3.418,3.418,0,0,1,.4,1.674A3.875,3.875,0,0,1-38.926-2.2a4.156,4.156,0,0,1-.868,1.287,4.067,4.067,0,0,1-1.276.873,3.864,3.864,0,0,1-1.561.315Zm3.638-6.326h-1.282L-44.223-.633H-42.5a2.58,2.58,0,0,0,1.1-.238,2.854,2.854,0,0,0,.9-.656,3.122,3.122,0,0,0,.61-.977,3.211,3.211,0,0,0,.222-1.2,2.642,2.642,0,0,0-.269-1.225,2.057,2.057,0,0,0-.749-.822A2.056,2.056,0,0,0-41.794-6.049ZM-35.3.369a2.482,2.482,0,0,1-1.23-.3,2.127,2.127,0,0,1-.837-.837A2.482,2.482,0,0,1-37.67-2a3.058,3.058,0,0,1,.207-1.127,2.989,2.989,0,0,1,.574-.93,2.748,2.748,0,0,1,.853-.636A2.363,2.363,0,0,1-35-4.923a2.045,2.045,0,0,1,1.085.289,2.012,2.012,0,0,1,.744.8A2.486,2.486,0,0,1-32.9-2.659q0,.165-.005.31a1.867,1.867,0,0,1-.036.3H-36.74a1.729,1.729,0,0,0,.191.811,1.5,1.5,0,0,0,.532.584,1.431,1.431,0,0,0,.786.217,2.054,2.054,0,0,0,.672-.114,1.817,1.817,0,0,0,.579-.32l.517.651a3.621,3.621,0,0,1-.9.45A3.072,3.072,0,0,1-35.3.369ZM-36.657-2.69h2.863a1.523,1.523,0,0,0-.165-.718,1.319,1.319,0,0,0-.45-.5,1.171,1.171,0,0,0-.656-.186,1.447,1.447,0,0,0-.7.176,1.614,1.614,0,0,0-.553.5A2.318,2.318,0,0,0-36.657-2.69Zm5.55,2.966-.92-5.116h1l.641,3.928,2.326-3.928H-27L-30.187.276Zm6.47.093a2.482,2.482,0,0,1-1.23-.3A2.127,2.127,0,0,1-26.7-.768,2.482,2.482,0,0,1-27-2,3.058,3.058,0,0,1-26.8-3.124a2.989,2.989,0,0,1,.574-.93,2.748,2.748,0,0,1,.853-.636,2.363,2.363,0,0,1,1.034-.233,2.045,2.045,0,0,1,1.085.289,2.012,2.012,0,0,1,.744.8,2.485,2.485,0,0,1,.269,1.173q0,.165-.005.31a1.867,1.867,0,0,1-.036.3h-3.793a1.729,1.729,0,0,0,.191.811,1.5,1.5,0,0,0,.532.584,1.431,1.431,0,0,0,.786.217,2.054,2.054,0,0,0,.672-.114,1.817,1.817,0,0,0,.579-.32l.517.651a3.621,3.621,0,0,1-.9.45A3.072,3.072,0,0,1-24.636.369ZM-25.99-2.69h2.863a1.523,1.523,0,0,0-.165-.718,1.319,1.319,0,0,0-.45-.5A1.171,1.171,0,0,0-24.4-4.1a1.447,1.447,0,0,0-.7.176,1.614,1.614,0,0,0-.553.5A2.317,2.317,0,0,0-25.99-2.69ZM-21.6.276l1.571-7.442.982-.176L-20.626.276Zm5,.1a2.2,2.2,0,0,1-1.163-.31,2.18,2.18,0,0,1-.8-.848,2.553,2.553,0,0,1-.289-1.23,2.957,2.957,0,0,1,.217-1.137,3.1,3.1,0,0,1,.589-.93,2.7,2.7,0,0,1,.868-.63,2.5,2.5,0,0,1,1.054-.227,2.24,2.24,0,0,1,1.178.3,2.146,2.146,0,0,1,.8.848,2.584,2.584,0,0,1,.289,1.235,2.992,2.992,0,0,1-.212,1.127,2.921,2.921,0,0,1-.594.93,2.917,2.917,0,0,1-.873.636A2.443,2.443,0,0,1-16.6.38Zm.052-.858a1.493,1.493,0,0,0,.884-.274,1.913,1.913,0,0,0,.615-.739,2.345,2.345,0,0,0,.227-1.044,1.665,1.665,0,0,0-.367-1.121,1.233,1.233,0,0,0-.987-.429,1.484,1.484,0,0,0-.868.274,1.936,1.936,0,0,0-.625.739A2.279,2.279,0,0,0-17.9-2.039,1.651,1.651,0,0,0-17.52-.907,1.24,1.24,0,0,0-16.543-.478Zm2.925,2.915,1.571-7.276h.941l-.114.537A1.971,1.971,0,0,1-9.8-4.881a1.775,1.775,0,0,1,1.023.31,2.168,2.168,0,0,1,.718.832A2.589,2.589,0,0,1-7.8-2.556a3.018,3.018,0,0,1-.207,1.121,3.113,3.113,0,0,1-.563.925,2.582,2.582,0,0,1-.837.63,2.375,2.375,0,0,1-1.028.227,1.948,1.948,0,0,1-.92-.217,1.661,1.661,0,0,1-.661-.63l-.641,2.935Zm3.431-6.491a1.716,1.716,0,0,0-1.178.475l-.506,2.357a1.49,1.49,0,0,0,.543.532,1.5,1.5,0,0,0,.77.2,1.645,1.645,0,0,0,.925-.269,1.957,1.957,0,0,0,.651-.718,2.064,2.064,0,0,0,.243-1,1.619,1.619,0,0,0-.4-1.147A1.36,1.36,0,0,0-10.187-4.055ZM-4.43.369a2.482,2.482,0,0,1-1.23-.3A2.127,2.127,0,0,1-6.5-.768,2.482,2.482,0,0,1-6.8-2,3.058,3.058,0,0,1-6.59-3.124a2.989,2.989,0,0,1,.574-.93,2.748,2.748,0,0,1,.853-.636A2.363,2.363,0,0,1-4.13-4.923a2.045,2.045,0,0,1,1.085.289,2.012,2.012,0,0,1,.744.8,2.485,2.485,0,0,1,.269,1.173q0,.165-.005.31a1.869,1.869,0,0,1-.036.3H-5.866a1.729,1.729,0,0,0,.191.811,1.5,1.5,0,0,0,.532.584,1.431,1.431,0,0,0,.786.217,2.054,2.054,0,0,0,.672-.114,1.817,1.817,0,0,0,.579-.32l.517.651a3.621,3.621,0,0,1-.9.45A3.072,3.072,0,0,1-4.43.369ZM-5.784-2.69h2.863a1.523,1.523,0,0,0-.165-.718,1.319,1.319,0,0,0-.45-.5A1.171,1.171,0,0,0-4.192-4.1a1.447,1.447,0,0,0-.7.176,1.614,1.614,0,0,0-.553.5A2.318,2.318,0,0,0-5.784-2.69ZM-1.4.276-.285-4.84H.676l-.217.982a2.5,2.5,0,0,1,.7-.8,1.423,1.423,0,0,1,.827-.274,1.281,1.281,0,0,1,.558.114l-.186.868a.9.9,0,0,0-.284-.1,1.766,1.766,0,0,0-.346-.036,1.438,1.438,0,0,0-.765.222,2.162,2.162,0,0,0-.641.625L-.44.276Z" transform="translate(214.238 84.698)" fill="#8d9bf9"/>
  </g>
</svg>
