<?xml version="1.0" standalone="no"?>
<!DOCTYPE svg PUBLIC "-//W3C//DTD SVG 1.1//EN" "http://www.w3.org/Graphics/SVG/1.1/DTD/svg11.dtd" >
<svg xmlns="http://www.w3.org/2000/svg">
<metadata>Generated by IcoMoon</metadata>
<defs>
<font id="icomoon" horiz-adv-x="1024">
<font-face units-per-em="1024" ascent="960" descent="-64" />
<missing-glyph horiz-adv-x="1024" />
<glyph unicode="&#x20;" horiz-adv-x="512" d="" />
<glyph unicode="&#xe900;" glyph-name="arrow-up" d="M590.771-64v787.712l259.405-259.405 111.386 111.386-338.099 338.227c-28.506 28.486-67.875 46.104-111.36 46.104s-82.854-17.618-111.361-46.105l-338.175-338.175 111.386-111.386 259.277 259.354v-787.712z" />
<glyph unicode="&#xe901;" glyph-name="arrow-down" d="M433.229 960v-787.712l-259.405 259.405-111.386-111.386 338.099-338.227c28.506-28.486 67.875-46.104 111.36-46.104s82.854 17.618 111.361 46.105l338.175 338.175-111.386 111.386-259.277-259.354v787.712z" />
<glyph unicode="&#xe902;" glyph-name="arrow-left" d="M1024 538.010h-787.712l259.405 259.405-111.386 111.386-338.227-338.099c-28.486-28.506-46.104-67.875-46.104-111.36s17.618-82.854 46.105-111.361l338.175-338.175 111.386 111.386-259.354 259.277h787.712z" />
<glyph unicode="&#xe903;" glyph-name="arrow-right" d="M0 380.493h787.712l-259.405-259.405 111.386-111.386 338.227 338.099c28.486 28.506 46.104 67.875 46.104 111.36s-17.618 82.854-46.105 111.361l-338.175 338.175-111.386-111.386 259.354-259.277h-787.712z" />
<glyph unicode="&#xe904;" glyph-name="chevron-up" d="M512 704c0.086 0 0.188 0 0.29 0 38.689 0 73.71-15.704 99.036-41.086l371.202-371.202-99.328-99.328-371.2 371.2-371.2-371.2-99.328 99.328 371.2 371.2c25.329 25.384 60.35 41.088 99.038 41.088 0.102 0 0.204 0 0.305 0h-0.016z" />
<glyph unicode="&#xe905;" glyph-name="chevron-down" d="M512 192c-0.086 0-0.188 0-0.29 0-38.689 0-73.71 15.704-99.036 41.086l-371.202 371.202 99.328 99.328 371.2-371.2 371.2 371.2 99.328-99.328-371.2-371.2c-25.329-25.384-60.35-41.088-99.038-41.088-0.102 0-0.204 0-0.305 0h0.016z" />
<glyph unicode="&#xe906;" glyph-name="chevron-left" d="M256 448c0 0.086 0 0.188 0 0.29 0 38.689 15.704 73.71 41.086 99.036l371.202 371.202 99.328-99.328-371.2-371.2 371.2-371.2-99.328-99.328-371.2 371.2c-25.384 25.329-41.088 60.35-41.088 99.038 0 0.102 0 0.204 0 0.305v-0.016z" />
<glyph unicode="&#xe907;" glyph-name="chevron-right" d="M768 448c0-0.086 0-0.188 0-0.29 0-38.689-15.704-73.71-41.086-99.036l-371.202-371.202-99.328 99.328 371.2 371.2-371.2 371.2 99.328 99.328 371.2-371.2c25.384-25.329 41.088-60.35 41.088-99.038 0-0.102 0-0.204 0-0.305v0.016z" />
<glyph unicode="&#xe908;" glyph-name="download" d="M1018.927 448c-0.224-282.807-229.535-511.979-512.372-511.979-52.008 0-102.206 7.749-149.503 22.155l3.63-0.951 24.343 81.78c36.394-11.224 78.23-17.687 121.577-17.687 235.65 0 426.682 191.032 426.682 426.682s-191.032 426.682-426.682 426.682c-43.347 0-85.183-6.464-124.599-18.48l3.023 0.793-24.343 81.78c43.667 13.455 93.866 21.204 145.874 21.204 282.837 0 512.148-229.173 512.372-511.957v-0.022zM506.927 192c0.079 0 0.172 0 0.265 0 25.896 0 49.346 10.475 66.344 27.418l-0.002-0.002 158.999 155.415-59.532 61.068-123.392-120.599v388.701h-85.364v-388.748l-123.345 120.553-59.625-61.021 158.627-154.857c17.152-17.251 40.9-27.927 67.142-27.927 0.008 0 0.016 0 0.025 0h-0.001zM182.97 170.217l-64.698-55.622c31.732-36.786 67.831-68.537 107.815-94.87l1.939-1.2 46.545 71.54c-34.98 22.957-65.096 49.448-91.087 79.596l-0.468 0.556zM0 375.575c7.509-51.973 21.732-98.908 41.943-142.503l-1.309 3.146 77.638 35.281c-15.73 33.668-27.559 72.736-33.519 113.706l-0.273 2.285-84.48-11.962zM0 520.378l84.48-11.869c6.243 43.241 18.071 82.292 34.881 118.563l-1.089-2.618-77.638 35.281c-18.897-40.434-33.12-87.352-40.304-136.555l-0.33-2.755zM118.737 781.871l64.698-55.855c26.362 30.583 56.354 56.979 89.574 78.876l1.609 0.996-46.545 71.54c-41.748-27.408-77.707-58.988-108.785-94.907l-0.551-0.651z" />
<glyph unicode="&#xe909;" glyph-name="phone" d="M751.476 411.834l267.311-267.311-135.308-135.308c-45.445-45.25-108.123-73.225-177.335-73.225-0.754 0-1.507 0.003-2.259 0.010l0.115-0.001c-309.248 0-704 394.752-704 704-0.005 0.606-0.008 1.321-0.008 2.038 0 69.26 27.972 131.987 73.235 177.499l135.297 135.25 267.311-267.311-176.035-175.988c53.444-124.782 150.695-222.244 271.961-274.677l3.355-1.291zM938.636 533.364h85.364c-0.291 235.523-191.155 426.371-426.657 426.636h-0.025v-85.318c188.409-0.238 341.080-152.909 341.318-341.295v-0.023zM767.953 533.364h85.318c-0.132 141.332-114.668 255.868-255.987 256h-0.013v-85.364c0.014 0 0.030 0 0.047 0 94.265 0 170.682-76.417 170.682-170.682v0z" />
<glyph unicode="&#xe90a;" glyph-name="mail" d="M235.939 111.569h227.095l150.109-149.969c15.726-15.813 37.498-25.6 61.556-25.6 0.008 0 0.016 0 0.025 0h-0.001c7.926 0.007 15.606 1.042 22.92 2.98l-0.625-0.141c30.12 7.801 53.506 30.678 61.895 59.899l0.15 0.61 264.751 900.375zM174.778 171.287l788.62 788.713-899.91-265.402c-36.926-10.757-63.451-44.295-63.451-84.029 0-24.159 9.806-46.028 25.655-61.843l0.002-0.001 148.945-148.945z" />
<glyph unicode="&#xe90b;" glyph-name="diagram" d="M554.667 704h-85.333c-47.128 0-85.333-38.205-85.333-85.333v0-682.667h256v682.667c0 47.128-38.205 85.333-85.333 85.333v0zM938.667 960h-85.333c-47.128 0-85.333-38.205-85.333-85.333v0-938.667h256v938.667c0 47.128-38.205 85.333-85.333 85.333v0zM170.667 448h-85.333c-47.128 0-85.333-38.205-85.333-85.333v0-426.667h256v426.667c0 47.128-38.205 85.333-85.333 85.333v0z" />
<glyph unicode="&#xe90c;" glyph-name="crown" d="M768 601.6l-256 256-256-256-256 256v-700.331c0-70.692 57.308-128 128-128v0h768c70.692 0 128 57.308 128 128v0 700.331z" />
<glyph unicode="&#xe90d;" glyph-name="umbrella" d="M1024 362.667c-0.403 267.513-205.746 486.939-467.409 509.698l-1.924 0.135v87.501h-85.333v-87.501c-263.591-22.886-468.939-242.316-469.333-509.793v-42.707h469.333v-256c0-23.564-19.103-42.667-42.667-42.667s-42.667 19.103-42.667 42.667v0h-85.333c0-70.692 57.308-128 128-128s128 57.308 128 128v0 256h469.333z" />
<glyph unicode="&#xe90e;" glyph-name="youtube" d="M999.796 692.643c-26.137 60.767-82.941 103.797-150.395 109.798l-0.691 0.050c-101.137 11.381-218.375 17.874-337.129 17.874-118.756 0-235.996-6.493-351.383-19.142l14.254 1.269c-67.845-6.465-124.312-49.357-150.074-108.672l-0.454-1.175c-15.218-74.014-23.929-159.079-23.929-246.179s8.711-172.164 25.31-254.37l-1.381 8.191c26.532-60.662 83.392-103.587 150.882-109.794l0.716-0.053c101.13-11.316 218.375-17.772 337.129-17.772 118.751 0 235.995 6.455 351.399 19.034l-14.27-1.262c67.826 6.517 124.271 49.389 150.073 108.672l0.455 1.175c15.056 73.623 23.674 158.242 23.674 244.875 0 87.567-8.805 173.077-25.578 255.693l1.392-8.21zM389.725 250.461v392.099l319.209-196.049c-107.567-66.095-212.015-130.467-319.209-196.003z" />
<glyph unicode="&#xe90f;" glyph-name="discord" d="M156.672 55.389h608.489l-29.091 94.348 69.539-59.718 63.767-57.018 115.991-97.047v918.342c-4.071 59.188-53.082 105.658-112.947 105.658-0.007 0-0.013 0-0.020 0h-715.589c-0.402 0.005-0.876 0.008-1.352 0.008-59.010 0-107.059-46.928-108.864-105.501l-0.004-0.166v-693.248c0.575-58.506 48.137-105.712 106.724-105.712 1.197 0 2.389 0.020 3.576 0.059l-0.173-0.005zM606.813 717.405v0zM280.995 663.505c41.487 31.892 93.633 51.832 150.34 53.886l0.467 0.013 5.772-5.818c-53.61-10.54-100.636-33.599-139.578-66.034l0.5 0.405s11.59 5.679 31.791 14.429c53.632 22.102 115.897 34.934 181.16 34.934 79.913 0 155.332-19.24 221.878-53.341l-2.746 1.278c-37.411 30.135-82.144 52.852-131.024 65.124l-2.376 0.505 7.959 7.82c56.278-2.526 107.469-22.398 148.856-54.352l-0.609 0.452c47.594-86.654 76.478-189.522 78.698-298.935l0.011-0.678c-41.931-45.182-101.605-73.394-167.871-73.495h-0.018s-20.061 22.9-34.49 42.729c38.871 9.058 71.808 30.276 95.448 59.355l0.249 0.317c-16.273-9.882-36.117-20.413-56.543-29.904l-3.967-1.654c-22.185-9.299-48.305-17.177-75.383-22.357l-2.534-0.403c-20.478-3.607-44.057-5.669-68.116-5.669-69.2 0-134.417 17.058-191.674 47.198l2.254-1.081-22.249 11.45c22.935-29.246 54.854-50.516 91.561-59.705l1.157-0.245c-17.268-20.62-34.63-43.799-34.63-43.799-2.871-0.156-6.23-0.245-9.611-0.245-62.272 0-117.485 30.225-151.769 76.804l-0.366 0.521c1.739 110.246 30.225 213.46 79.227 303.94l-1.728-3.489zM615.564 420.631c0.014 0 0.030 0 0.046 0 28.534 0 51.665 23.131 51.665 51.665s-23.131 51.665-51.665 51.665c-28.501 0-51.612-23.078-51.665-51.567v-0.005c0 0 0 0 0 0 0-28.536 23.094-51.679 51.611-51.758h0.008zM416.023 420.631c0.014 0 0.030 0 0.046 0 28.534 0 51.665 23.131 51.665 51.665s-23.131 51.665-51.665 51.665c-28.501 0-51.612-23.078-51.665-51.567v-0.005c0 0 0 0 0 0 0-28.536 23.094-51.679 51.611-51.758h0.008z" />
<glyph unicode="&#xe910;" glyph-name="github" d="M383.767-50.781c0 16.151-0.559 58.88-0.884 115.479-192.279-40.96-232.727 91.136-232.727 91.136-13.47 42.038-40.636 76.491-76.148 98.935l-0.745 0.44c-62.604 41.891 4.655 41.239 4.655 41.239 45.276-6.032 83.399-32.253 105.526-69.162l0.365-0.657c26.154-45.162 74.249-75.056 129.325-75.056 26.415 0 51.224 6.876 72.735 18.937l-0.751-0.387c3.369 35.937 19.499 67.576 43.748 90.808l0.052 0.049c-153.6 16.989-314.833 75.404-314.833 335.639-0.015 1.038-0.023 2.263-0.023 3.49 0 69.255 27.13 132.174 71.343 178.707l-0.105-0.111c-9.38 24.545-14.813 52.934-14.813 82.592 0 35.195 7.65 68.603 21.378 98.652l-0.608-1.485s57.903 18.199 190.092-69.818c51.822 14.557 111.334 22.925 172.8 22.925s120.978-8.368 177.459-24.027l-4.659 1.102c131.351 87.831 189.207 69.818 189.207 69.818 13.144-29.025 20.803-62.934 20.803-98.633 0-29.076-5.081-56.965-14.404-82.828l0.536 1.702c43.891-46.542 70.867-109.454 70.867-178.666 0-1.268-0.009-2.534-0.027-3.797l0.002 0.191c0-260.934-161.559-318.371-315.345-335.127 29.036-29.147 46.987-69.353 46.987-113.752 0-4.195-0.16-8.353-0.475-12.467l0.034 0.547c0-90.903-0.884-163.933-0.884-186.182 0.186-17.594-340.48-18.246-340.48-0.233z" />
<glyph unicode="&#xe911;" glyph-name="linkedin" d="M1024 354.211v-382.417h-219.508v356.817c0 89.553-31.697 150.761-111.197 150.761-51.935-0.476-95.962-33.808-112.335-80.194l-0.259-0.842c-4.705-14.065-7.419-30.259-7.419-47.087 0-2.445 0.057-4.877 0.171-7.295l-0.013 0.342v-372.364h-219.555s2.932 604.207 0 666.717h219.555v-94.348c-0.419-0.745-1.071-1.489-1.443-2.188h1.443v2.188c38.133 66.339 108.598 110.294 189.329 110.294 3.002 0 5.99-0.061 8.962-0.181l-0.426 0.014c144.291 0 252.695-95.279 252.695-300.032zM124.23 960c-2.582 0.206-5.59 0.323-8.625 0.323-63.752 0-115.433-51.681-115.433-115.433s51.681-115.433 115.433-115.433c2.019 0 4.026 0.052 6.019 0.154l-0.28-0.011h1.443c2.609-0.21 5.648-0.329 8.715-0.329 63.777 0 115.479 51.702 115.479 115.479s-51.702 115.479-115.479 115.479c-2.559 0-5.098-0.083-7.615-0.247l0.343 0.018zM13.033-28.207h219.462v666.81h-219.462z" />
<glyph unicode="&#xe912;" glyph-name="arrow-external" d="M205.671 30.31l556.996 556.996v-366.854h157.523l0.090 478.235c-0.032 86.965-70.522 157.455-157.483 157.487h-478.256v-157.523l366.727 0.054-556.997-556.997z" />
<glyph unicode="&#xe913;" glyph-name="archive" d="M992 784c0 44.183-35.817 80-80 80v0h-800c-44.183 0-80-35.817-80-80v0-160h80v-512c0-44.183 35.817-80 80-80v0h640c44.183 0 80 35.817 80 80v0 512h80zM832 624v-512h-640v512h640zM912 704h-800v80h800zM472.32 423.68h79.36c22.268 0 40.32 18.052 40.32 40.32s-18.052 40.32-40.32 40.32h-79.36c-22.268 0-40.32-18.052-40.32-40.32s18.052-40.32 40.32-40.32v0z" />
<glyph unicode="&#xe914;" glyph-name="communication" d="M512 828.98c-234.72 0-425-138.92-425-310.28 0-99.48 64.14-188 163.84-244.78 22.3-12.7 33.36-38.62 26.84-63.44-14.080-53.48-35.16-110.68-65.12-140.64 0 0 135.020-31.76 255.24 117.82 10.68 13.28 26.9 20.76 43.92 20.76 0.1 0 0.18 0 0.28 0 234.72 0 425 138.92 425 310.28s-190.28 310.28-425 310.28zM283.6 453.84c-35.82 0-64.86 29.040-64.86 64.86s29.040 64.86 64.86 64.86c35.82 0 64.86-29.040 64.86-64.86s-29.040-64.86-64.86-64.86zM512 453.84c-35.82 0-64.86 29.040-64.86 64.86s29.040 64.86 64.86 64.86 64.86-29.040 64.86-64.86-29.040-64.86-64.86-64.86zM740.4 453.84c-35.82 0-64.86 29.040-64.86 64.86s29.040 64.86 64.86 64.86c35.82 0 64.86-29.040 64.86-64.86s-29.040-64.86-64.86-64.86z" />
<glyph unicode="&#xe915;" glyph-name="book" d="M832 736h-544c-19.2 0-32 12.8-32 32s12.8 32 32 32h544c19.2 0 32-12.8 32-32s-12.8-32-32-32zM832 704h-544c-35.2 0-64 28.8-64 64s28.8 64 64 64h544c19.2 0 32 12.8 32 32s-12.8 32-32 32h-544c-70.4 0-128-57.6-128-128v-640c0-70.4 57.6-128 128-128h544c19.2 0 32 12.8 32 32v640c0 19.2-12.8 32-32 32z" />
<glyph unicode="&#xe916;" glyph-name="magnifier" d="M932.992 1.248l-22.688-22.688c-25.12-25.088-65.76-25.088-90.816 0l-181.632 181.568c-20.992 21.056-23.328 52.608-8.992 77.184l-99.328 99.264c-53.408-39.616-119.296-63.328-190.88-63.328-177.28 0-320.992 143.712-320.992 320.992s143.712 321.024 320.992 321.024c177.312 0 320.992-143.712 320.992-321.024 0-82.528-31.36-157.536-82.56-214.4l97.12-97.12c24.576 14.304 56.128 12 77.12-9.056l181.632-181.568c25.088-25.12 25.088-65.792 0.032-90.848zM578.816 595.552c0 132.96-107.808 240.736-240.768 240.736s-240.768-107.744-240.768-240.736 107.776-240.736 240.736-240.736 240.8 107.776 240.8 240.736z" />
</font>
</defs>
</svg>
